<?xml version="1.0" encoding="utf-8"?>
<!-- Generator: Adobe Illustrator 24.2.1, SVG Export Plug-In . SVG Version: 6.00 Build 0)  -->
<svg version="1.1" id="_x23_boom" xmlns="http://www.w3.org/2000/svg" xmlns:xlink="http://www.w3.org/1999/xlink" x="0px" y="0px"
	 viewBox="0 0 500 500" style="enable-background:new 0 0 500 500;" xml:space="preserve">
<style type="text/css">
	.st0{fill:#FFFFFF;}
	.st1{fill-rule:evenodd;clip-rule:evenodd;fill:none;}
	.st2{fill-rule:evenodd;clip-rule:evenodd;fill:#FFFFFF;}
</style>
<g id="skadiClick">
	<circle class="st0" cx="106.22" cy="216.95" r="30"/>
</g>
<g id="araanClick">
	<circle class="st0" cx="153.74" cy="379.03" r="30"/>
</g>
<g id="nagaClick">
	<circle class="st0" cx="348.05" cy="376.71" r="30"/>
</g>
<g id="lioneClick">
	<circle class="st0" cx="400.69" cy="218.83" r="30"/>
</g>
<g id="nimbusClick">
	<circle class="st0" cx="250.12" cy="103.86" r="30"/>
</g>
<g id="opusClick">
	<rect x="208" y="204.5" class="st1" width="81" height="81"/>
	<path class="st2" d="M245.9,217.64c2.14-0.03,4.32-0.17,6.08,0.32c7.35,2.06,11.47,6.43,13.61,13.77c0.45,1.53,1.17,4.46,0.64,6.73
		c-0.38,1.63-0.65,3.46-1.28,4.96c-2.58,6.1-7.69,9.51-14.73,11.21c-3.38,0.82-7.63-0.76-9.61-1.6c-5.7-2.42-8.87-6.03-10.73-12.33
		c-0.47-1.59-0.95-4.2-0.48-6.24c0.38-1.69,0.26-3.03,0.8-4.48c1.75-4.71,5.27-8.78,9.77-10.73c1.28-0.43,2.56-0.85,3.84-1.28
		C244.61,217.74,245.34,218,245.9,217.64L245.9,217.64z M246.7,222.92c-1.01,0.62-3.18,0.63-4.32,1.12
		c-3.3,1.43-5.95,4.53-7.21,8.01c-0.46,1.27-0.19,2.46-0.48,4c-1.07,5.71,4.44,10.56,8.33,12.17c1.46,0.6,4.14,1.51,6.56,0.96
		c5.26-1.18,8.69-3.81,10.57-8.33c1.14-2.74,0.82-6.73-0.16-9.29C257.99,226.34,254.01,222.85,246.7,222.92L246.7,222.92z
		 M245.58,235.89c5.33-0.14,12.91,0.76,12.81,5.76c-0.85,0.56-1.34,1.21-2.72,1.28c-0.61-0.47-1.57-0.37-2.4-0.64
		c-2.26-0.74-5.4-1.61-8.49-0.8c-2.08,0.55-4.18,1.72-6.56,1.28c-0.25-0.4-0.63-0.94-0.96-1.28c-0.02-0.56-0.05-1.29,0.16-1.6
		c0.68-1.83,3.52-2.79,5.44-3.36C243.81,236.25,244.87,236.4,245.58,235.89L245.58,235.89z M231.17,249.02
		c0.86-0.01,1.76,0.03,2.4,0.16c0.29,0.52,0.79,1.16,0.96,1.76c0.05,1.87,0.11,3.74,0.16,5.6c0.52,2.24,1.23,4.18,2.4,5.76
		c2.54,3.44,8.96,6.89,15.05,4.64c3-1.1,5.95-3.55,7.37-6.24c0.81-1.54,1.03-3.35,1.44-5.28c0.12-0.54-0.1-1.31-0.16-1.6
		c-0.3-1.42,0.29-2.81,0.64-3.68c0.83-0.53,1.21-0.82,2.72-0.8c0.42,0.4,1.12,0.64,1.44,1.12c1.53,2.3,0.48,7.8-0.32,9.93
		c-2.67,7.14-7.2,10.65-15.21,12.49c-2.79,0.64-6.03-0.37-7.85-0.96c-6.68-2.18-10.32-6.09-12.33-12.97
		c-0.49-1.66-1.13-4.86-0.48-7.05C229.76,250.71,230.57,249.92,231.17,249.02L231.17,249.02z"/>
</g>
</svg>
